<svg id="visual" viewBox="0 0 3840 2160" width="3840" height="2160" xmlns="http://www.w3.org/2000/svg" xmlns:xlink="http://www.w3.org/1999/xlink" version="1.1"><path d="M0 152L58.2 198.8C116.3 245.7 232.7 339.3 349 389.8C465.3 440.3 581.7 447.7 698 433.3C814.3 419 930.7 383 1047 357.7C1163.3 332.3 1279.7 317.7 1396 303.2C1512.3 288.7 1628.7 274.3 1745.2 292.3C1861.7 310.3 1978.3 360.7 2094.8 378.7C2211.3 396.7 2327.7 382.3 2444 386C2560.3 389.7 2676.7 411.3 2793 400.5C2909.3 389.7 3025.7 346.3 3142 328.3C3258.3 310.3 3374.7 317.7 3491 343C3607.3 368.3 3723.7 411.7 3781.8 433.3L3840 455L3840 0L3781.8 0C3723.7 0 3607.3 0 3491 0C3374.7 0 3258.3 0 3142 0C3025.7 0 2909.3 0 2793 0C2676.7 0 2560.3 0 2444 0C2327.7 0 2211.3 0 2094.8 0C1978.3 0 1861.7 0 1745.2 0C1628.7 0 1512.3 0 1396 0C1279.7 0 1163.3 0 1047 0C930.7 0 814.3 0 698 0C581.7 0 465.3 0 349 0C232.7 0 116.3 0 58.2 0L0 0Z" fill="#92bcdf"></path><path d="M0 692L58.2 677.7C116.3 663.3 232.7 634.7 349 631.2C465.3 627.7 581.7 649.3 698 649.3C814.3 649.3 930.7 627.7 1047 606C1163.3 584.3 1279.7 562.7 1396 541C1512.3 519.3 1628.7 497.7 1745.2 522.8C1861.7 548 1978.3 620 2094.8 645.2C2211.3 670.3 2327.7 648.7 2444 648.7C2560.3 648.7 2676.7 670.3 2793 681.2C2909.3 692 3025.7 692 3142 666.8C3258.3 641.7 3374.7 591.3 3491 627.3C3607.3 663.3 3723.7 785.7 3781.8 846.8L3840 908L3840 453L3781.8 431.3C3723.7 409.7 3607.3 366.3 3491 341C3374.7 315.7 3258.3 308.3 3142 326.3C3025.7 344.3 2909.3 387.7 2793 398.5C2676.7 409.3 2560.3 387.7 2444 384C2327.7 380.3 2211.3 394.7 2094.8 376.7C1978.3 358.7 1861.7 308.3 1745.2 290.3C1628.7 272.3 1512.3 286.7 1396 301.2C1279.7 315.7 1163.3 330.3 1047 355.7C930.7 381 814.3 417 698 431.3C581.7 445.7 465.3 438.3 349 387.8C232.7 337.3 116.3 243.7 58.2 196.8L0 150Z" fill="#79add8"></path><path d="M0 951L58.2 943.8C116.3 936.7 232.7 922.3 349 911.7C465.3 901 581.7 894 698 879.7C814.3 865.3 930.7 843.7 1047 818.3C1163.3 793 1279.7 764 1396 742.3C1512.3 720.7 1628.7 706.3 1745.2 756.8C1861.7 807.3 1978.3 922.7 2094.8 944.3C2211.3 966 2327.7 894 2444 872.3C2560.3 850.7 2676.7 879.3 2793 900.8C2909.3 922.3 3025.7 936.7 3142 907.8C3258.3 879 3374.7 807 3491 839.5C3607.3 872 3723.7 1009 3781.8 1077.5L3840 1146L3840 906L3781.8 844.8C3723.7 783.7 3607.3 661.3 3491 625.3C3374.7 589.3 3258.3 639.7 3142 664.8C3025.7 690 2909.3 690 2793 679.2C2676.7 668.3 2560.3 646.7 2444 646.7C2327.7 646.7 2211.3 668.3 2094.8 643.2C1978.3 618 1861.7 546 1745.2 520.8C1628.7 495.7 1512.3 517.3 1396 539C1279.7 560.7 1163.3 582.3 1047 604C930.7 625.7 814.3 647.3 698 647.3C581.7 647.3 465.3 625.7 349 629.2C232.7 632.7 116.3 661.3 58.2 675.7L0 690Z" fill="#5f9ed1"></path><path d="M0 1362L58.2 1354.8C116.3 1347.7 232.7 1333.3 349 1380.2C465.3 1427 581.7 1535 698 1617.7C814.3 1700.3 930.7 1757.7 1047 1786.3C1163.3 1815 1279.7 1815 1396 1717.8C1512.3 1620.7 1628.7 1426.3 1745.2 1394C1861.7 1361.7 1978.3 1491.3 2094.8 1505.8C2211.3 1520.3 2327.7 1419.7 2444 1455.7C2560.3 1491.7 2676.7 1664.3 2793 1671.5C2909.3 1678.7 3025.7 1520.3 3142 1488C3258.3 1455.7 3374.7 1549.3 3491 1617.7C3607.3 1686 3723.7 1729 3781.8 1750.5L3840 1772L3840 1144L3781.8 1075.5C3723.7 1007 3607.3 870 3491 837.5C3374.7 805 3258.3 877 3142 905.8C3025.7 934.7 2909.3 920.3 2793 898.8C2676.7 877.3 2560.3 848.7 2444 870.3C2327.7 892 2211.3 964 2094.8 942.3C1978.3 920.7 1861.7 805.3 1745.2 754.8C1628.7 704.3 1512.3 718.7 1396 740.3C1279.7 762 1163.3 791 1047 816.3C930.7 841.7 814.3 863.3 698 877.7C581.7 892 465.3 899 349 909.7C232.7 920.3 116.3 934.7 58.2 941.8L0 949Z" fill="#5189b6"></path><path d="M0 2161L58.2 2161C116.3 2161 232.7 2161 349 2161C465.3 2161 581.7 2161 698 2161C814.3 2161 930.7 2161 1047 2161C1163.3 2161 1279.7 2161 1396 2161C1512.3 2161 1628.7 2161 1745.2 2161C1861.7 2161 1978.3 2161 2094.8 2161C2211.3 2161 2327.7 2161 2444 2161C2560.3 2161 2676.7 2161 2793 2161C2909.3 2161 3025.7 2161 3142 2161C3258.3 2161 3374.7 2161 3491 2161C3607.3 2161 3723.7 2161 3781.8 2161L3840 2161L3840 1770L3781.8 1748.5C3723.7 1727 3607.3 1684 3491 1615.7C3374.7 1547.3 3258.3 1453.7 3142 1486C3025.7 1518.3 2909.3 1676.7 2793 1669.5C2676.7 1662.3 2560.3 1489.7 2444 1453.7C2327.7 1417.7 2211.3 1518.3 2094.8 1503.8C1978.3 1489.3 1861.7 1359.7 1745.2 1392C1628.7 1424.3 1512.3 1618.7 1396 1715.8C1279.7 1813 1163.3 1813 1047 1784.3C930.7 1755.7 814.3 1698.3 698 1615.7C581.7 1533 465.3 1425 349 1378.2C232.7 1331.3 116.3 1345.7 58.2 1352.8L0 1360Z" fill="#44749c"></path></svg>